<svg xmlns="http://www.w3.org/2000/svg" xmlns:xlink="http://www.w3.org/1999/xlink" width="1920" zoomAndPan="magnify" viewBox="0 0 1440 809.999993" height="1080" preserveAspectRatio="xMidYMid meet" version="1.0"><defs><clipPath id="a1355c115d"><path d="M 399.246094 87.496094 L 1040.753906 87.496094 L 1040.753906 729 L 399.246094 729 Z M 399.246094 87.496094 " clip-rule="nonzero"/></clipPath><clipPath id="4437738e50"><path d="M 720 87.496094 C 542.855469 87.496094 399.246094 231.101562 399.246094 408.246094 C 399.246094 585.394531 542.855469 729 720 729 C 897.144531 729 1040.753906 585.394531 1040.753906 408.246094 C 1040.753906 231.101562 897.144531 87.496094 720 87.496094 Z M 720 87.496094 " clip-rule="nonzero"/></clipPath><clipPath id="ce69411c26"><path d="M 0.246094 0.496094 L 641.753906 0.496094 L 641.753906 642 L 0.246094 642 Z M 0.246094 0.496094 " clip-rule="nonzero"/></clipPath><clipPath id="95d0d94560"><path d="M 321 0.496094 C 143.855469 0.496094 0.246094 144.101562 0.246094 321.246094 C 0.246094 498.394531 143.855469 642 321 642 C 498.144531 642 641.753906 498.394531 641.753906 321.246094 C 641.753906 144.101562 498.144531 0.496094 321 0.496094 Z M 321 0.496094 " clip-rule="nonzero"/></clipPath><clipPath id="6acbb0d815"><rect x="0" width="642" y="0" height="642"/></clipPath><clipPath id="f26af410e6"><path d="M 456.144531 195.898438 L 984 195.898438 L 984 555.898438 L 456.144531 555.898438 Z M 456.144531 195.898438 " clip-rule="nonzero"/></clipPath></defs><g clip-path="url(#a1355c115d)"><g clip-path="url(#4437738e50)"><g transform="matrix(1, 0, 0, 1, 399, 87)"><g clip-path="url(#6acbb0d815)"><g clip-path="url(#ce69411c26)"><g clip-path="url(#95d0d94560)"><path fill="#0e489b" d="M 0.246094 0.496094 L 641.75 0.496094 L 641.75 642 L 0.246094 642 Z M 0.246094 0.496094 " fill-opacity="1" fill-rule="nonzero"/></g></g></g></g></g></g><g clip-path="url(#f26af410e6)"><path fill="#ffc70a" d="M 862.652344 508.113281 L 862.652344 331.589844 L 857.058594 329.6875 L 857.058594 506.742188 C 853.261719 505.789062 849.460938 504.945312 845.558594 504.101562 L 845.558594 325.679688 L 839.964844 323.78125 L 839.964844 502.941406 C 836.167969 502.097656 832.367188 501.359375 828.464844 500.621094 L 828.464844 319.769531 L 822.871094 317.871094 L 822.871094 499.671875 C 818.019531 498.828125 813.164062 497.984375 808.3125 497.246094 L 808.3125 278.726562 L 766.949219 307.953125 L 766.949219 492.496094 C 761.042969 492.074219 755.027344 491.652344 749.011719 491.335938 L 749.011719 259.839844 L 743.421875 257.941406 L 743.421875 491.125 C 739.621094 491.019531 735.824219 490.914062 731.917969 490.808594 L 731.917969 254.035156 L 726.328125 252.136719 L 726.328125 490.808594 C 724.113281 490.808594 721.894531 490.808594 719.679688 490.808594 C 710.183594 490.808594 700.792969 491.019531 691.402344 491.441406 L 691.402344 195.898438 L 641.074219 234.09375 L 641.074219 327.789062 L 662.597656 337.285156 L 661.542969 493.445312 C 658.269531 493.761719 654.894531 494.078125 651.625 494.5 L 651.625 370.734375 L 646.03125 368.519531 L 646.03125 495.132812 C 642.234375 495.660156 638.328125 496.082031 634.53125 496.714844 L 634.53125 363.980469 L 628.9375 361.765625 L 628.9375 497.5625 C 625.140625 498.195312 621.234375 498.828125 617.4375 499.460938 L 617.4375 357.121094 L 611.84375 354.90625 L 611.84375 500.410156 C 607.414062 501.253906 602.980469 502.097656 598.65625 503.046875 L 598.65625 313.125 L 554.972656 343.933594 L 554.972656 514.125 C 519.730469 524.785156 486.285156 538.816406 456.214844 555.699219 C 533.976562 530.269531 623.980469 515.710938 719.996094 515.710938 C 816.015625 515.710938 906.015625 530.269531 983.78125 555.699219 C 947.695312 535.441406 906.859375 519.191406 862.652344 508.113281 Z M 862.652344 508.113281 " fill-opacity="1" fill-rule="nonzero"/></g><path fill="#ffc70a" d="M 715.144531 248.128906 L 709.65625 246.226562 L 709.65625 490.703125 L 715.144531 490.703125 Z M 715.144531 248.128906 " fill-opacity="1" fill-rule="nonzero"/></svg>